# xmcd
#
# Track frame offsets:
# 150
# 21948
# 38176
# 59188
# 71830
# 89827
# 105651
# 121628
# 135338
# 157947
# 173781
# 190418
# 207670
#
# Disc length: 2959 seconds
#
#
# Revision: 0
# Processed by: cddbd v1.5.2PL0 Copyright (c) Steve Scherf et al.
# Submitted via: FreeRIP 2.945 
#
DISCID=be0b8d0d
DTITLE=Lucas and Matheus - 15 Anos
DYEAR=2006
DGENRE=Sertanejo
TTITLE0=Mais Dia, Menos Dia
TTITLE1=Pra Sempre Minha Vida
TTITLE2=Não Me Deixe Amor
TTITLE3=A Bebida Não Cura
TTITLE4=Vou Te Amar
TTITLE5=Eu Duvido
TTITLE6=Tá Faltando Seu Amor
TTITLE7=Anabela
TTITLE8=Coração Aberto
TTITLE9=Ainda Te Quero
TTITLE10=Por Isso Eu Bebo
TTITLE11=Você Me Esqueceu
TTITLE12=Xonou, xonou
EXTD=
EXTT0=
EXTT1=
EXTT2=
EXTT3=
EXTT4=
EXTT5=
EXTT6=
EXTT7=
EXTT8=
EXTT9=
EXTT10=
EXTT11=
EXTT12=
PLAYORDER=
